<svg width="25" height="24" viewBox="0 0 25 24" fill="none" xmlns="http://www.w3.org/2000/svg">
<path d="M18.3333 19.6667C19.0406 19.6667 19.7189 19.9476 20.219 20.4477C20.719 20.9478 21 21.6261 21 22.3333C21 21.6261 21.281 20.9478 21.781 20.4477C22.2811 19.9476 22.9594 19.6667 23.6667 19.6667C22.9594 19.6667 22.2811 19.3857 21.781 18.8856C21.281 18.3855 21 17.7072 21 17C21 17.7072 20.719 18.3855 20.219 18.8856C19.7189 19.3857 19.0406 19.6667 18.3333 19.6667ZM18.3333 3.66667C19.0406 3.66667 19.7189 3.94762 20.219 4.44772C20.719 4.94781 21 5.62609 21 6.33333C21 5.62609 21.281 4.94781 21.781 4.44772C22.2811 3.94762 22.9594 3.66667 23.6667 3.66667C22.9594 3.66667 22.2811 3.38572 21.781 2.88562C21.281 2.38552 21 1.70724 21 1C21 1.70724 20.719 2.38552 20.219 2.88562C19.7189 3.38572 19.0406 3.66667 18.3333 3.66667ZM9 19.6667C9 17.5449 9.84286 15.5101 11.3431 14.0098C12.8434 12.5095 14.8783 11.6667 17 11.6667C14.8783 11.6667 12.8434 10.8238 11.3431 9.32352C9.84286 7.82323 9 5.7884 9 3.66667C9 5.7884 8.15715 7.82323 6.65685 9.32352C5.15656 10.8238 3.12173 11.6667 1 11.6667C3.12173 11.6667 5.15656 12.5095 6.65685 14.0098C8.15715 15.5101 9 17.5449 9 19.6667Z" fill="#7D3BEC" stroke="#7D3BEC" stroke-width="2" stroke-linecap="round" stroke-linejoin="round"/>
</svg>
